<?xml version="1.0" encoding="UTF-8"?>
<svg version="1.1" xmlns="http://www.w3.org/2000/svg" width="210" height="210">
<path d="M0 0 C0.77988281 0.66515625 1.55976563 1.3303125 2.36328125 2.015625 C3.11222656 2.61890625 3.86117187 3.2221875 4.6328125 3.84375 C22.25781546 18.53639696 35.35964961 42.74516772 38.14794922 65.55419922 C40.82286143 96.13069009 35.47601167 124.60485311 15.37890625 148.65234375 C14.71375 149.43222656 14.04859375 150.21210938 13.36328125 151.015625 C12.45835937 152.13904297 12.45835937 152.13904297 11.53515625 153.28515625 C-3.15749071 170.91015921 -27.36626147 184.01199336 -50.17529297 186.80029297 C-80.75178384 189.47520518 -109.22594686 184.12835542 -133.2734375 164.03125 C-134.05332031 163.36609375 -134.83320313 162.7009375 -135.63671875 162.015625 C-136.38566406 161.41234375 -137.13460937 160.8090625 -137.90625 160.1875 C-155.53125296 145.49485304 -168.63308711 121.28608228 -171.42138672 98.47705078 C-174.09629893 67.90055991 -168.74944917 39.42639689 -148.65234375 15.37890625 C-147.9871875 14.59902344 -147.32203125 13.81914063 -146.63671875 13.015625 C-146.0334375 12.26667969 -145.43015625 11.51773438 -144.80859375 10.74609375 C-130.11594679 -6.87890921 -105.90717603 -19.98074336 -83.09814453 -22.76904297 C-52.52165366 -25.44395518 -24.04749064 -20.09710542 0 0 Z " fill="#001822" transform="translate(171.63671875,22.984375)"/>
<path d="M0 0 C3.22836538 1.7388835 5.54966097 3.80981827 6.875 7.3125 C6.91625 7.869375 6.9575 8.42625 7 9 C7.33 8.67 7.66 8.34 8 8 C10.4375 7.8125 10.4375 7.8125 13 8 C15.507062 10.507062 15.25647173 11.32038533 15.2746582 14.78515625 C15.28895622 16.27680298 15.28895622 16.27680298 15.30354309 17.79858398 C15.30263168 18.87567627 15.30172028 19.95276855 15.30078125 21.0625 C15.30506638 22.164729 15.3093515 23.26695801 15.31376648 24.40258789 C15.31951699 26.73615837 15.32000477 29.06974677 15.31567383 31.40332031 C15.31251294 34.98533498 15.33596815 38.56652499 15.36132812 42.1484375 C15.36360084 44.41145729 15.36430475 46.6744793 15.36328125 48.9375 C15.372491 50.01459229 15.38170074 51.09168457 15.39118958 52.20141602 C15.38496078 53.19584717 15.37873199 54.19027832 15.37231445 55.21484375 C15.37294388 56.09261475 15.3735733 56.97038574 15.3742218 57.87475586 C15.18898201 58.92675171 15.18898201 58.92675171 15 60 C12 62 12 62 9.3125 61.625 C8.549375 61.41875 7.78625 61.2125 7 61 C6.731875 61.928125 6.46375 62.85625 6.1875 63.8125 C5.03672234 66.9014295 4.4840124 68.00248772 2 70 C-1.00844899 71.00854671 -3.84160812 71.2797894 -7 71 C-10.62999707 69.16621266 -12.6992744 66.90217681 -14 63 C-14.1029643 61.2015256 -14.14849289 59.39951957 -14.16113281 57.59814453 C-14.17074036 56.49334747 -14.1803479 55.38855042 -14.19024658 54.25027466 C-14.19449646 53.05651215 -14.19874634 51.86274963 -14.203125 50.6328125 C-14.20882507 49.40593719 -14.21452515 48.17906189 -14.22039795 46.91500854 C-14.22985044 44.31753401 -14.23638291 41.72004747 -14.24023438 39.12255859 C-14.24994406 35.14789951 -14.28096778 31.17375653 -14.3125 27.19921875 C-14.31902961 24.67708641 -14.32428025 22.15495036 -14.328125 19.6328125 C-14.3404718 18.44309845 -14.3528186 17.2533844 -14.36553955 16.02761841 C-14.36253845 14.91651703 -14.35953735 13.80541565 -14.35644531 12.66064453 C-14.36009094 11.68596222 -14.36373657 10.71127991 -14.36749268 9.70706177 C-13.92786516 6.46863302 -12.92391352 4.6240409 -11 2 C-7.30378364 -0.46414424 -4.28819801 -0.80100302 0 0 Z " fill="#C76BE4" transform="translate(51,85)"/>
<path d="M0 0 C2.87029869 1.79393668 4.49131638 2.98263276 6 6 C6.10621157 7.82167158 6.14880722 9.6472002 6.16113281 11.47192383 C6.17074036 12.61683792 6.1803479 13.76175201 6.19024658 14.94136047 C6.19449646 16.18403183 6.19874634 17.42670319 6.203125 18.70703125 C6.20882507 19.97971359 6.21452515 21.25239594 6.22039795 22.56364441 C6.2298593 25.26129738 6.23675014 27.9588388 6.24023438 30.65649414 C6.2457118 34.10656434 6.2697232 37.55623841 6.29820633 41.00618458 C6.32135968 44.30227006 6.32328454 47.59837583 6.328125 50.89453125 C6.3404718 52.13112991 6.3528186 53.36772858 6.36553955 54.64179993 C6.36253845 55.7961705 6.35953735 56.95054108 6.35644531 58.13989258 C6.36009094 59.15312088 6.36373657 60.16634918 6.36749268 61.21028137 C5.93816007 64.46944069 4.90239605 66.3440311 3 69 C-0.42159595 71.56619697 -3.84844133 71.50984054 -8 71 C-10.875 68.5625 -10.875 68.5625 -13 66 C-13.33 65.67 -13.66 65.34 -14 65 C-14.23192865 63.48530552 -14.41215238 61.96245438 -14.5625 60.4375 C-14.64628906 59.61121094 -14.73007813 58.78492188 -14.81640625 57.93359375 C-14.87699219 57.29550781 -14.93757812 56.65742188 -15 56 C-15.763125 56.226875 -16.52625 56.45375 -17.3125 56.6875 C-20 57 -20 57 -21.6446991 55.75585938 C-23.95708724 52.76004613 -23.4047701 49.13232766 -23.36328125 45.5 C-23.36377975 44.66791016 -23.36427826 43.83582031 -23.36479187 42.97851562 C-23.36245236 41.22002778 -23.35273102 39.46153653 -23.33618164 37.703125 C-23.31258859 35.01011235 -23.31562149 32.31808973 -23.32226562 29.625 C-23.31668877 27.91666076 -23.30957885 26.20832569 -23.30078125 24.5 C-23.30169266 23.69369141 -23.30260406 22.88738281 -23.30354309 22.05664062 C-23.25447945 18.19168021 -23.19264189 16.28896283 -21 13 C-18.4375 12.75 -18.4375 12.75 -16 13 C-15.67 13.33 -15.34 13.66 -15 14 C-14.97873047 13.11248047 -14.97873047 13.11248047 -14.95703125 12.20703125 C-14.70470251 8.02655783 -14.32935381 5.50432302 -12 1.9375 C-7.93914192 -0.68513751 -4.71179197 -0.94747991 0 0 Z " fill="#C56CE3" transform="translate(167,85)"/>
<path d="M0 0 C3.75570031 1.41882012 4.9542862 3.56506917 7.1953125 6.8046875 C8.84880253 9.11318324 10.64519582 11.15767221 12.5625 13.25 C16.90913393 18.20113269 18.25884933 22.06721488 18.1484375 28.63671875 C17.57117207 32.80511211 15.76625367 36.37304553 13.8125 40.0625 C13.4825 40.0625 13.1525 40.0625 12.8125 40.0625 C12.76351562 39.06089844 12.71453125 38.05929688 12.6640625 37.02734375 C12.58895921 35.68487241 12.51341474 34.3424257 12.4375 33 C12.33308594 31.03353516 12.33308594 31.03353516 12.2265625 29.02734375 C11.81444564 25.08113043 11.01493433 21.82132927 9.8125 18.0625 C7.5025 17.7325 5.1925 17.4025 2.8125 17.0625 C2.82821045 18.18744873 2.8439209 19.31239746 2.86010742 20.47143555 C2.91451216 24.65528165 2.94888836 28.83909662 2.97729492 33.02319336 C2.99235755 34.83216617 3.01281177 36.6411026 3.03881836 38.44995117 C3.0753132 41.05396515 3.09225157 43.6574952 3.10546875 46.26171875 C3.12095261 47.06711594 3.13643646 47.87251312 3.15238953 48.70231628 C3.15376543 53.31965004 2.82096192 56.32271386 -0.1875 60.0625 C-3.87643116 62.52178744 -6.90391421 62.75555579 -11.1875 62.0625 C-14.63062714 59.9380173 -15.90367547 58.91397359 -17.1875 55.0625 C-17.5625 51.6875 -17.5625 51.6875 -17.1875 48.0625 C-14.75 45.1875 -14.75 45.1875 -12.1875 43.0625 C-11.8575 42.7325 -11.5275 42.4025 -11.1875 42.0625 C-8.51691149 41.92134839 -5.86317762 42.02002893 -3.1875 42.0625 C-3.1875 38.7625 -3.1875 35.4625 -3.1875 32.0625 C-11.42075033 32.4055521 -17.05067807 33.62372026 -22.79296875 39.78515625 C-26.77721972 45.22025491 -27.06053173 50.50985737 -26.1875 57.0625 C-24.47291465 63.21483568 -21.23350995 66.43910008 -16.1875 70.0625 C-11.40656457 72.45296771 -3.92057974 71.92656645 1.0859375 70.34375 C6.11759846 67.61918249 9.72409005 63.34032264 11.8125 58.0625 C12.1077194 55.28855167 12.31962231 52.5924489 12.4375 49.8125 C12.47617188 49.06742188 12.51484375 48.32234375 12.5546875 47.5546875 C12.64855108 45.7243476 12.73159718 43.89345857 12.8125 42.0625 C14.7925 42.0625 16.7725 42.0625 18.8125 42.0625 C19.82775554 60.24685475 19.82775554 60.24685475 13.8125 68.0625 C8.21444138 74.25698729 3.44002865 77.57924962 -5.0078125 78.3046875 C-14.42107911 78.705754 -20.19051576 76.25637127 -27.1875 70.0625 C-32.65812598 62.28970171 -34.76866837 54.46502029 -33.1875 45.0625 C-30.43795646 36.7887594 -24.19627406 31.36383326 -16.8125 27.125 C-13.51523074 26.15855901 -11.33531359 25.94915071 -7.9609375 25.99609375 C-6.61781494 26.01047485 -6.61781494 26.01047485 -5.24755859 26.02514648 C-4.56773926 26.03747314 -3.88791992 26.0497998 -3.1875 26.0625 C-3.19535522 24.9343689 -3.19535522 24.9343689 -3.20336914 23.78344727 C-3.22407227 20.39730658 -3.23713877 17.01117916 -3.25 13.625 C-3.25837891 12.44099609 -3.26675781 11.25699219 -3.27539062 10.03710938 C-3.28022461 8.35004883 -3.28022461 8.35004883 -3.28515625 6.62890625 C-3.29039307 5.58677979 -3.29562988 4.54465332 -3.30102539 3.47094727 C-3.15473381 0.36736356 -3.10277047 0.08865058 0 0 Z " fill="#7785E5" transform="translate(112.1875,72.9375)"/>
<path d="M0 0 C10.45510529 7.86590994 20.0814133 20.29420844 22.6640625 33.359375 C22.77492188 34.23078125 22.88578125 35.1021875 23 36 C20.36 36 17.72 36 15 36 C14.78085938 35.32195312 14.56171875 34.64390625 14.3359375 33.9453125 C8.73501977 17.50684665 0.26438605 8.19651275 -15 0 C-28.07364179 -5.6529417 -43.66513446 -5.84904201 -57 -1 C-71.16349469 5.08679111 -81.30504699 15.53925611 -87.16015625 29.83203125 C-87.84821896 31.86421647 -88.43844967 33.92928315 -89 36 C-91.31 36 -93.62 36 -96 36 C-95.77015984 24.27815201 -87.984436 13.16066294 -80 5 C-56.19961054 -15.36362607 -25.97363339 -18.17397088 0 0 Z " fill="#C067DB" transform="translate(142,42)"/>
<path d="M0 0 C2.5 0.25 2.5 0.25 4.5 2.25 C4.76069641 4.37524414 4.76069641 4.37524414 4.7746582 7.03515625 C4.78419022 8.0295874 4.79372223 9.02401855 4.80354309 10.04858398 C4.80263168 11.12567627 4.80172028 12.20276855 4.80078125 13.3125 C4.80506638 14.414729 4.8093515 15.51695801 4.81376648 16.65258789 C4.81951699 18.98615837 4.82000477 21.31974677 4.81567383 23.65332031 C4.81251294 27.23533498 4.83596815 30.81652499 4.86132812 34.3984375 C4.86360084 36.66145729 4.86430475 38.9244793 4.86328125 41.1875 C4.872491 42.26459229 4.88170074 43.34168457 4.89118958 44.45141602 C4.88496078 45.44584717 4.87873199 46.44027832 4.87231445 47.46484375 C4.87294388 48.34261475 4.8735733 49.22038574 4.8742218 50.12475586 C4.68898201 51.17675171 4.68898201 51.17675171 4.5 52.25 C1.5 54.25 1.5 54.25 -1.1875 53.875 C-1.950625 53.66875 -2.71375 53.4625 -3.5 53.25 C-3.83 53.91 -4.16 54.57 -4.5 55.25 C-4.55057965 47.73863592 -4.58568257 40.22731551 -4.60986328 32.71582031 C-4.61994038 30.15883747 -4.63360226 27.60186621 -4.65087891 25.04492188 C-4.67505217 21.37627308 -4.68646585 17.70777621 -4.6953125 14.0390625 C-4.70563507 12.89007477 -4.71595764 11.74108704 -4.72659302 10.55728149 C-4.72674408 9.4963327 -4.72689514 8.43538391 -4.72705078 7.34228516 C-4.731492 6.40518707 -4.73593323 5.46808899 -4.74050903 4.50259399 C-4.38159453 1.14102108 -3.31463574 0.33146357 0 0 Z " fill="#38B0F7" transform="translate(61.5,92.75)"/>
<path d="M0 0 C2.5 -0.3125 2.5 -0.3125 5 0 C7.66070205 2.66070205 7.24916545 4.65479678 7.27789307 8.27392578 C7.2738446 9.13228027 7.26979614 9.99063477 7.265625 10.875 C7.26753845 11.75526855 7.2694519 12.63553711 7.27142334 13.54248047 C7.27278552 15.40527634 7.26908682 17.26808169 7.26074219 19.13085938 C7.25004307 21.98849736 7.26063632 24.84550666 7.2734375 27.703125 C7.27211591 29.51041806 7.26955353 31.31771073 7.265625 33.125 C7.26967346 33.98335449 7.27372192 34.84170898 7.27789307 35.72607422 C7.22991745 41.77008255 7.22991745 41.77008255 5 44 C1.70285207 43.67028521 0.3773161 43.3773161 -2 41 C-2.19995031 38.1661759 -2.27976672 35.43221017 -2.265625 32.59765625 C-2.26753845 31.76415146 -2.2694519 30.93064667 -2.27142334 30.07188416 C-2.2727855 28.30744119 -2.26908689 26.54298821 -2.26074219 24.77856445 C-2.25005638 22.07675637 -2.26062932 19.37561526 -2.2734375 16.67382812 C-2.27211565 14.96093603 -2.26955272 13.24804435 -2.265625 11.53515625 C-2.26967346 10.7257106 -2.27372192 9.91626495 -2.27789307 9.08229065 C-2.24546956 5.20387423 -2.20063048 3.30094572 0 0 Z " fill="#37B0F6" transform="translate(146,98)"/>
<path d="M0 0 C5.74419238 4.5953539 8.0574947 8.07289459 9.75 15.125 C10.50915 26.89182496 11.00739245 37.00638443 3.3125 46.625 C2.549375 47.40875 1.78625 48.1925 1 49 C0.67 49 0.34 49 0 49 C0 32.83 0 16.66 0 0 Z " fill="#C469E0" transform="translate(180,96)"/>
<path d="M0 0 C0.33 0 0.66 0 1 0 C1 15.84 1 31.68 1 48 C-2 47 -2 47 -3.5703125 44.41796875 C-4.08335938 43.35191406 -4.59640625 42.28585938 -5.125 41.1875 C-5.64320312 40.12917969 -6.16140625 39.07085937 -6.6953125 37.98046875 C-10.38319314 29.55575938 -10.26029522 19.6650916 -7.3125 11 C-5.49262698 6.59980703 -3.36186331 3.36186331 0 0 Z " fill="#C368DE" transform="translate(29,96)"/>
<path d="M0 0 C2.5 0.25 2.5 0.25 4.5 2.25 C4.94804715 5.5635576 4.82409862 8.90959863 4.8125 12.25 C4.82861328 13.178125 4.84472656 14.10625 4.86132812 15.0625 C4.86197266 15.949375 4.86261719 16.83625 4.86328125 17.75 C4.86775269 18.97203125 4.86775269 18.97203125 4.87231445 20.21875 C4.74945068 20.8890625 4.62658691 21.559375 4.5 22.25 C1.5 24.25 1.5 24.25 -1.125 23.9375 C-3.5 23.25 -3.5 23.25 -4.5 22.25 C-4.75035974 18.94483066 -4.68521952 15.62603959 -4.6875 12.3125 C-4.69974609 11.37986328 -4.71199219 10.44722656 -4.72460938 9.48632812 C-4.72654297 8.59494141 -4.72847656 7.70355469 -4.73046875 6.78515625 C-4.73663208 5.55357788 -4.73663208 5.55357788 -4.74291992 4.29711914 C-4.35739797 1.04827336 -3.16261369 0.31626137 0 0 Z " fill="#3DB3FC" transform="translate(163.5,107.75)"/>
<path d="M0 0 C1.010625 0.0825 2.02125 0.165 3.0625 0.25 C5.77632083 4.32073125 5.39377641 7.47328112 5.375 12.25 C5.39111328 13.06984375 5.40722656 13.8896875 5.42382812 14.734375 C5.42447266 15.52328125 5.42511719 16.3121875 5.42578125 17.125 C5.43025269 18.20394531 5.43025269 18.20394531 5.43481445 19.3046875 C4.95379148 21.81799313 4.09323895 22.73245835 2.0625 24.25 C-2.35855263 23.82894737 -2.35855263 23.82894737 -3.9375 22.25 C-4.03649523 20.70044441 -4.06829524 19.14646327 -4.0703125 17.59375 C-4.07160156 16.65402344 -4.07289062 15.71429688 -4.07421875 14.74609375 C-4.07035156 13.75738281 -4.06648438 12.76867187 -4.0625 11.75 C-4.06636719 10.76128906 -4.07023437 9.77257812 -4.07421875 8.75390625 C-4.07292969 7.81417969 -4.07164063 6.87445313 -4.0703125 5.90625 C-4.06918457 5.03806641 -4.06805664 4.16988281 -4.06689453 3.27539062 C-3.85923927 0.02499815 -3.30951067 0.28166048 0 0 Z " fill="#3EB2FC" transform="translate(46.9375,107.75)"/>
</svg>
